<?xml version="1.0" encoding="UTF-8" standalone="no"?>
<!DOCTYPE svg PUBLIC "-//W3C//DTD SVG 1.1//EN" "http://www.w3.org/Graphics/SVG/1.1/DTD/svg11.dtd">
<svg width="100%" height="100%" viewBox="0 0 266 325" version="1.1" xmlns="http://www.w3.org/2000/svg" xmlns:xlink="http://www.w3.org/1999/xlink" xml:space="preserve" xmlns:serif="http://www.serif.com/" style="fill-rule:evenodd;clip-rule:evenodd;stroke-linejoin:round;stroke-miterlimit:1.41421;">
    <path d="M86.165,3.473C89.438,3.487 92.636,4.592 95.7,6.5C105.7,12.8 115.9,31.3 122.5,41.5C122.4,39.7 122.1,38 121.7,36.2C124.8,40.5 126.8,45.1 127.6,50.4C128,45.3 129.7,40.5 133.1,35.4C136.5,40.5 138.2,45.3 138.6,50.4C139.4,45.1 141.4,40.5 144.5,36.2C144.1,38 143.8,39.7 143.7,41.5C150.3,31.3 160.5,12.8 170.5,6.5C175.8,3.2 181.5,2.3 187.3,5.3C201.1,12.4 210.9,36.9 215.2,50.9C219.3,64.2 219.9,77 217.3,89.2C224.2,92.5 230.1,96.8 236.5,100.6C235.525,100.713 234.536,100.825 233.543,100.938L231.557,101.162C230.564,101.275 229.575,101.387 228.6,101.5C239.5,109.2 244.5,117 249.1,124.7C246.4,124.3 243.7,123.8 241,123.4C260.2,142.5 262.6,160.1 264,177.5C261.3,174.6 258.6,171.7 255.9,168.8C253.9,190.9 244.4,208.2 232,223.7C231.6,218.2 231,212.6 229.7,206.8C220.6,223.5 210,240.2 199.1,256.9C198.9,254.1 198.8,251.2 198.6,248.3C191.4,262.9 182.8,277.4 163.5,291.6C163.2,288.8 162.9,286 162.6,283.2C154.3,295.5 146.1,307.8 137.8,320.1C137.7,318.1 137.6,316.1 137.5,314.1C136.1,316.2 134.6,318.4 133.2,320.5C131.7,318.3 130.3,316.2 128.7,314.1C128.6,316.1 128.5,318.1 128.4,320.1C120.1,307.8 111.9,295.5 103.6,283.2C103.3,286 103,288.8 102.7,291.6C83.5,277.3 74.8,262.8 67.6,248.3C67.4,251.1 67.3,254 67.1,256.9C56.1,240.2 45.6,223.5 36.5,206.8C35.2,212.7 34.6,218.2 34.2,223.7C21.8,208.3 12.4,190.9 10.3,168.8C7.6,171.7 4.9,174.6 2.2,177.5C3.6,160.1 6,142.5 25.2,123.4C22.5,123.8 19.8,124.3 17.1,124.7C21.7,117 26.7,109.2 37.6,101.5C34.9,101.2 32.3,100.9 29.7,100.6C36.1,96.8 41.9,92.4 48.9,89.2C46.3,77 46.9,64.3 51,50.9C55.3,36.9 65.1,12.4 78.9,5.3C81.324,4.046 83.731,3.474 86.098,3.473L86.165,3.473ZM141.75,275.757C142.5,274.164 143.25,272.575 144,271C145.3,273.6 146.5,276.1 147.8,278.6C151.7,273.6 155.7,268.7 159.6,263.7C159.7,265.3 159.9,266.8 160,268.3C165.9,261 171.9,253.7 177.9,246.4C178.1,247.7 178.2,249 178.4,250.3C186.1,239.3 193.2,226.5 201.5,217.3C201.6,219.1 201.6,220.9 201.6,222.7C203.3,215.6 205.1,208.6 206.8,201.6C223.4,190.8 226.3,169 217.4,155.1C212.4,154.9 207.9,155.8 203.6,157.4C203.4,172 198.8,184.5 192.2,195.8C192.8,190.3 192.8,184.8 191.8,179.2C190.6,181.5 189.7,184 189,186.6C186.9,195.2 188,204.8 186.4,214.1C183.4,230.7 176,245.8 161.8,255.3C154,260.6 144.3,264.3 133.2,267C122.1,264.4 112.4,260.6 104.4,255.3C90.1,245.8 82.7,230.6 79.8,214.1C78.2,204.8 79.3,195.1 77.2,186.6C76.6,183.9 75.6,181.5 74.4,179.2C73.4,184.8 73.3,190.4 74,195.8C67.4,184.5 62.9,172.1 62.6,157.4C58.3,155.8 53.8,154.9 48.8,155.1C39.9,169 42.8,190.8 59.4,201.6C61.1,208.7 62.9,215.7 64.6,222.7C64.7,220.9 64.7,219.1 64.7,217.3C73,226.5 80.1,239.3 87.8,250.3C87.888,249.731 87.956,249.163 88.022,248.594L88.078,248.106C88.144,247.538 88.213,246.969 88.3,246.4C94.2,253.7 100.2,261 106.2,268.3C106.3,266.7 106.5,265.2 106.6,263.7C110.5,268.7 114.5,273.6 118.4,278.6C119.7,276 120.9,273.5 122.2,271C124.2,275.2 126.2,279.5 128.2,283.7C129.2,280.7 130.2,277.8 131.2,274.9C131.8,280.3 132.5,285.8 133.1,291.2C133.7,285.8 134.4,280.3 135,274.9C136,277.9 137,280.8 138,283.7C138.75,282.125 139.5,280.536 140.25,278.943L141.75,275.757ZM133.2,44.4C136.2,46.2 137.3,50.3 138,54.8C139.7,50.6 141.2,47.9 142.6,47.8C149.8,47.7 145.9,76.2 145.4,81.1C144.4,90 142.9,98.8 141.6,107.5C139.1,123.3 136,142.1 142.4,157.3C145.6,164.8 150.5,169.1 156.4,171.4C137.8,157.3 151.4,127.7 159.9,120.6C159,124 158.2,127.4 157.3,130.9C161.5,128.3 166.6,126.4 172.7,125.3C170.1,127.8 167.8,130.3 166.1,132.8C172.9,131.8 180.2,131.9 188,133.7C186.4,135.6 184.8,137.6 183.2,139.5C185,139.4 186.9,139.3 188.9,139.3C186.8,146.2 182.6,152.8 172.2,158.5C176.6,158.2 181,157.9 185.4,157.6C185.3,168.3 182.9,178.9 181.6,189.6C181.2,192.5 180.8,195.5 180.4,198.7C177.6,218.3 172.4,242.2 158.7,249.2C150.7,253.3 139.3,253.3 133.3,253.5C127.3,253.4 115.9,253.3 107.9,249.2C94.2,242.2 89,218.2 86.2,198.7C85.7,195.5 85.3,192.5 85,189.6C83.7,178.9 81.4,168.3 81.2,157.6C85.6,157.9 90,158.2 94.4,158.5C84,152.8 79.7,146.2 77.7,139.3C79.7,139.3 81.6,139.4 83.4,139.5C81.8,137.6 80.2,135.6 78.6,133.7C86.4,131.9 93.7,131.7 100.5,132.8C98.8,130.3 96.5,127.8 93.9,125.3C100,126.4 105.1,128.3 109.3,130.9C108.4,127.5 107.6,124.1 106.7,120.6C115.2,127.7 128.8,157.4 110.2,171.4C116.2,169 121.1,164.8 124.2,157.3C130.6,142.1 127.5,123.3 125,107.5C123.6,98.7 122.2,89.9 121.2,81.1C120.7,76.3 116.8,47.7 124,47.8C125.4,47.8 126.9,50.5 128.6,54.8C129.1,50.3 130.2,46.2 133.2,44.4ZM128,248C123.4,246.7 119.6,244.4 116.8,240.7C116.5,240.2 116.4,239.8 116.6,239.5C117,238.9 118.2,239.8 118.6,240C120.9,241.2 122.5,241.7 123.2,241.3C124.9,240.3 121.1,235.1 120,233.9C118.5,232.3 117.4,231.7 116.9,231.7C116.5,231.7 116.5,232.3 116.8,233.5C116.9,233.9 117.3,234.6 117,234.9C116.8,235.1 116.5,235 116.1,234.8C113.6,232.9 112,230.7 111.2,228.6C108.9,222.5 113.6,218.3 118.9,216.4C122,215.3 125.9,214.6 130.6,214.3C132.3,214.2 133.9,214.2 135.6,214.3C140.4,214.6 144.4,215.3 147.6,216.4C152.9,218.3 157.5,222.5 155.3,228.6C154.5,230.8 152.8,232.9 150.4,234.8C150,235 149.7,235.1 149.5,234.9C149.2,234.5 149.5,233.9 149.7,233.5C150,232.3 150,231.7 149.6,231.7C149.1,231.7 147.9,232.3 146.5,233.9C145.4,235.1 141.6,240.3 143.3,241.3C144,241.7 145.6,241.2 147.9,240C148.3,239.8 149.5,238.9 149.9,239.5C150,239.7 150,240.1 149.7,240.7C146.9,244.3 143.2,246.7 138.6,247.9C134.3,249.1 132.1,249.1 128,248ZM129.4,215.1C125.6,215.5 123.9,217.5 124.2,221.4C124.5,226.9 129.7,232.7 129.2,237.5C128.9,240.6 126.5,242.1 123.7,242.2C122.9,242.2 122.1,242.1 121.3,241.9C120.9,241.8 120.5,241.6 120.3,241.6C120,241.6 119.9,241.7 120.1,241.9C121.3,243.9 124.1,245.3 128.1,246.4C132.6,247.6 133.7,247.6 138.3,246.4C142.3,245.3 145.1,243.9 146.3,241.9C146.5,241.6 146.4,241.5 146.1,241.6C145.9,241.6 145.5,241.7 145.1,241.9C144.3,242.1 143.5,242.2 142.7,242.2C140,242.1 137.5,240.6 137.2,237.5C136.8,232.7 141.9,226.9 142.2,221.4C142.4,217.5 140.8,215.5 137,215.1C134.8,214.8 131.5,214.8 129.4,215.1ZM155.3,160.9C154.3,152.9 158.4,144.1 164.5,142.4C167.4,141.6 171.4,142.2 176.7,144.8C176.3,155.1 157.9,154.9 155.3,160.9ZM111.1,160.9C112.1,152.9 108,144.1 101.9,142.4C99,141.6 95,142.2 89.7,144.8C90.1,155.1 108.5,154.9 111.1,160.9ZM171,145.8C169.3,145.1 167.9,144.9 166.7,144.9C166.9,148.8 163.5,149.6 162.3,146.5C161.3,146.8 160.5,147.3 159.8,148C165.3,154.5 170.7,150.1 171,145.8ZM95.3,145.8C97,145.1 98.4,144.9 99.6,144.9C99.4,148.8 102.8,149.6 104,146.5C105,146.8 105.8,147.3 106.5,148C101.1,154.5 95.6,150.1 95.3,145.8ZM184.2,50.5C177,54.6 171.2,59.3 166.8,64.6C167,59.6 167.9,54.4 169.2,49.2C171.4,40.3 175.3,28 179.1,19.5C180.5,16.4 182.1,13.7 184,13.1C184.4,13 184.7,12.9 185.2,13C186.9,13.2 191,18.2 192.6,19.9C200.9,29 206,39.2 209.1,50.2C211.3,58.1 214,71.8 213.1,79.9C212.8,82.6 212.2,85.2 211.3,87.7C211.2,86.9 211.1,86.1 211.1,85.3C210,87.9 206.9,89.2 203.2,90.1C203,79.1 202.5,68.1 201.3,57.2C198.1,65.3 194.9,73.3 191.7,81.4C191.1,72.7 190.3,64 190.5,55.3C187.9,59.2 185.2,63.1 182.6,67C183.1,61.6 183.6,56.1 184.2,50.5ZM81.542,12.959C81.438,12.963 81.325,12.975 81.2,13C79.5,13.2 75.4,18.2 73.8,19.9C65.5,29 60.4,39.2 57.3,50.2C55.1,58.1 52.4,71.8 53.3,79.9C53.6,82.6 54.2,85.2 55.1,87.7C55.2,86.9 55.3,86.1 55.3,85.3C56.4,87.9 59.5,89.2 63.2,90.1C63.4,79.1 63.9,68.1 65.1,57.2C66.3,60.238 67.5,63.261 68.7,66.281L71.1,72.319C72.3,75.339 73.5,78.363 74.7,81.4C75.3,72.7 76.1,64 75.9,55.3C78.5,59.2 81.2,63.1 83.8,67C83.3,61.6 82.7,56.1 82.2,50.5C89.4,54.6 95.2,59.3 99.6,64.6C99.4,59.6 98.5,54.4 97.2,49.2C95,40.3 91.1,28 87.3,19.5C85.9,16.4 84.3,13.7 82.4,13.1C82.113,13.028 81.877,12.956 81.581,12.959L81.542,12.959Z" style="fill:rgb(186,187,187);"/>
</svg>
