<?xml version="1.0" encoding="utf-8"?>
<svg id="Layer_1" style="enable-background:new 0 0 595.3 841.9;" x="0px" y="0px" viewBox="172 171 266 325" xmlns="http://www.w3.org/2000/svg">
  <style type="text/css">
	.st0{fill-rule:evenodd;clip-rule:evenodd;fill:#BABBBB;}
	.st1{fill-rule:evenodd;clip-rule:evenodd;fill:#FFFFFF;}
</style>
  <path class="st0" d="M305.2,491.5c1.4-2.1,2.9-4.3,4.3-6.4c0.1,2,0.2,4,0.3,6c8.3-12.3,16.5-24.6,24.8-36.9c0.3,2.8,0.6,5.6,0.9,8.4&#10;&#9;c19.3-14.2,27.9-28.7,35.1-43.3c0.2,2.9,0.3,5.8,0.5,8.6c10.9-16.7,21.5-33.4,30.6-50.1c1.3,5.8,1.9,11.4,2.3,16.9&#10;&#9;c12.4-15.5,21.9-32.8,23.9-54.9c2.7,2.9,5.4,5.8,8.1,8.7c-1.4-17.4-3.8-35-23-54.1c2.7,0.4,5.4,0.9,8.1,1.3&#10;&#9;c-4.6-7.7-9.6-15.5-20.5-23.2c2.6-0.3,5.3-0.6,7.9-0.9c-6.4-3.8-12.3-8.1-19.2-11.4c2.6-12.2,2-25-2.1-38.3&#10;&#9;c-4.3-14-14.1-38.5-27.9-45.6c-5.8-3-11.5-2.1-16.8,1.2c-10,6.3-20.2,24.8-26.8,35c0.1-1.8,0.4-3.5,0.8-5.3&#10;&#9;c-3.1,4.3-5.1,8.9-5.9,14.2c-0.4-5.1-2.1-9.9-5.5-15c-3.4,5.1-5.1,9.9-5.5,15c-0.8-5.3-2.8-9.9-5.9-14.2c0.4,1.8,0.7,3.5,0.8,5.3&#10;&#9;c-6.6-10.2-16.8-28.7-26.8-35c-5.3-3.3-11-4.2-16.8-1.2c-13.8,7.1-23.6,31.6-27.9,45.6c-4.1,13.4-4.7,26.1-2.1,38.3&#10;&#9;c-7,3.2-12.8,7.6-19.2,11.4c2.6,0.3,5.2,0.6,7.9,0.9c-10.9,7.7-15.9,15.5-20.5,23.2c2.7-0.4,5.4-0.9,8.1-1.3&#10;&#9;c-19.2,19.1-21.6,36.7-23,54.1c2.7-2.9,5.4-5.8,8.1-8.7c2.1,22.1,11.5,39.5,23.9,54.9c0.4-5.5,1-11,2.3-16.9&#10;&#9;c9.1,16.7,19.6,33.4,30.6,50.1c0.2-2.9,0.3-5.8,0.5-8.6c7.2,14.5,15.9,29,35.1,43.3c0.3-2.8,0.6-5.6,0.9-8.4&#10;&#9;c8.3,12.3,16.5,24.6,24.8,36.9c0.1-2,0.2-4,0.3-6C302.3,487.2,303.7,489.3,305.2,491.5z"/>
  <path class="st1" d="M305.2,438c11.1-2.7,20.8-6.4,28.6-11.7c14.2-9.5,21.6-24.6,24.6-41.2c1.6-9.3,0.5-18.9,2.6-27.5&#10;&#9;c0.7-2.6,1.6-5.1,2.8-7.4c1,5.6,1,11.1,0.4,16.6c6.6-11.3,11.2-23.8,11.4-38.4c4.3-1.6,8.8-2.5,13.8-2.3c8.9,13.9,6,35.7-10.6,46.5&#10;&#9;c-1.7,7-3.5,14-5.2,21.1c0-1.8,0-3.6-0.1-5.4c-8.3,9.2-15.4,22-23.1,33c-0.2-1.3-0.3-2.6-0.5-3.9c-6,7.3-12,14.6-17.9,21.9&#10;&#9;c-0.1-1.5-0.3-3-0.4-4.6c-3.9,5-7.9,9.9-11.8,14.9c-1.3-2.5-2.5-5-3.8-7.6c-2,4.2-4,8.5-6,12.7c-1-2.9-2-5.8-3-8.8&#10;&#9;c-0.6,5.4-1.3,10.9-1.9,16.3c-0.6-5.4-1.3-10.9-1.9-16.3c-1,2.9-2,5.8-3,8.8c-2-4.2-4-8.5-6-12.7c-1.3,2.5-2.5,5-3.8,7.6&#10;&#9;c-3.9-5-7.9-9.9-11.8-14.9c-0.1,1.5-0.3,3-0.4,4.6c-6-7.3-12-14.6-17.9-21.9c-0.2,1.3-0.3,2.6-0.5,3.9c-7.7-11-14.8-23.8-23.1-33&#10;&#9;c0,1.8,0,3.6-0.1,5.4c-1.7-7-3.5-14-5.2-21.1c-16.6-10.8-19.5-32.6-10.6-46.5c5-0.2,9.5,0.7,13.8,2.3c0.3,14.7,4.8,27.1,11.4,38.4&#10;&#9;c-0.7-5.4-0.6-11,0.4-16.6c1.2,2.3,2.2,4.7,2.8,7.4c2.1,8.5,1,18.2,2.6,27.5c2.9,16.5,10.3,31.7,24.6,41.2&#10;&#9;C284.4,431.6,294.1,435.4,305.2,438z"/>
  <path class="st1" d="M305.2,215.4c3,1.8,4.1,5.9,4.8,10.4c1.7-4.2,3.2-6.9,4.6-7c7.2-0.1,3.3,28.4,2.8,33.3&#10;&#9;c-1,8.9-2.5,17.7-3.8,26.4c-2.5,15.8-5.6,34.6,0.8,49.8c3.2,7.5,8.1,11.8,14,14.1c-18.6-14.1-5-43.7,3.5-50.8&#10;&#9;c-0.9,3.4-1.7,6.8-2.6,10.3c4.2-2.6,9.3-4.5,15.4-5.6c-2.6,2.5-4.9,5-6.6,7.5c6.8-1,14.1-0.9,21.9,0.9c-1.6,1.9-3.2,3.9-4.8,5.8&#10;&#9;c1.8-0.1,3.7-0.2,5.7-0.2c-2.1,6.9-6.3,13.5-16.7,19.2c4.4-0.3,8.8-0.6,13.2-0.9c-0.1,10.7-2.5,21.3-3.8,32&#10;&#9;c-0.4,2.9-0.8,5.9-1.2,9.1c-2.8,19.6-8,43.5-21.7,50.5c-8,4.1-19.4,4.1-25.4,4.3c-6-0.1-17.4-0.2-25.4-4.3&#10;&#9;c-13.7-7-18.9-31-21.7-50.5c-0.5-3.2-0.9-6.2-1.2-9.1c-1.3-10.7-3.6-21.3-3.8-32c4.4,0.3,8.8,0.6,13.2,0.9&#10;&#9;c-10.4-5.7-14.7-12.3-16.7-19.2c2,0,3.9,0.1,5.7,0.2c-1.6-1.9-3.2-3.9-4.8-5.8c7.8-1.8,15.1-2,21.9-0.9c-1.7-2.5-4-5-6.6-7.5&#10;&#9;c6.1,1.1,11.2,3,15.4,5.6c-0.9-3.4-1.7-6.8-2.6-10.3c8.5,7.1,22.1,36.8,3.5,50.8c6-2.4,10.9-6.6,14-14.1c6.4-15.2,3.3-34,0.8-49.8&#10;&#9;c-1.4-8.8-2.8-17.6-3.8-26.4c-0.5-4.8-4.4-33.4,2.8-33.3c1.4,0,2.9,2.7,4.6,7C301.1,221.3,302.2,217.2,305.2,215.4z"/>
  <path class="st1" d="M254.2,221.5c7.2,4.1,13,8.8,17.4,14.1c-0.2-5-1.1-10.2-2.4-15.4c-2.2-8.9-6.1-21.2-9.9-29.7&#10;&#9;c-1.4-3.1-3-5.8-4.9-6.4c-0.4-0.1-0.7-0.2-1.2-0.1c-1.7,0.2-5.8,5.2-7.4,6.9c-8.3,9.1-13.4,19.3-16.5,30.3c-2.2,7.9-4.9,21.6-4,29.7&#10;&#9;c0.3,2.7,0.9,5.3,1.8,7.8c0.1-0.8,0.2-1.6,0.2-2.4c1.1,2.6,4.2,3.9,7.9,4.8c0.2-11,0.7-22,1.9-32.9c3.2,8.1,6.4,16.1,9.6,24.2&#10;&#9;c0.6-8.7,1.4-17.4,1.2-26.1c2.6,3.9,5.3,7.8,7.9,11.7C255.3,232.6,254.7,227.1,254.2,221.5z"/>
  <path class="st1" d="M356.2,221.5c-7.2,4.1-13,8.8-17.4,14.1c0.2-5,1.1-10.2,2.4-15.4c2.2-8.9,6.1-21.2,9.9-29.7&#10;&#9;c1.4-3.1,3-5.8,4.9-6.4c0.4-0.1,0.7-0.2,1.2-0.1c1.7,0.2,5.8,5.2,7.4,6.9c8.3,9.1,13.4,19.3,16.5,30.3c2.2,7.9,4.9,21.6,4,29.7&#10;&#9;c-0.3,2.7-0.9,5.3-1.8,7.8c-0.1-0.8-0.2-1.6-0.2-2.4c-1.1,2.6-4.2,3.9-7.9,4.8c-0.2-11-0.7-22-1.9-32.9c-3.2,8.1-6.4,16.1-9.6,24.2&#10;&#9;c-0.6-8.7-1.4-17.4-1.2-26.1c-2.6,3.9-5.3,7.8-7.9,11.7C355.1,232.6,355.6,227.1,356.2,221.5z"/>
  <path class="st0" d="M283.1,331.9c1-8-3.1-16.8-9.2-18.5c-2.9-0.8-6.9-0.2-12.2,2.4C262.1,326.1,280.5,325.9,283.1,331.9&#10;&#9;L283.1,331.9z M267.3,316.8c1.7-0.7,3.1-0.9,4.3-0.9c-0.2,3.9,3.2,4.7,4.4,1.6c1,0.3,1.8,0.8,2.5,1.5&#10;&#9;C273.1,325.5,267.6,321.1,267.3,316.8z"/>
  <path class="st0" d="M327.3,331.9c-1-8,3.1-16.8,9.2-18.5c2.9-0.8,6.9-0.2,12.2,2.4C348.3,326.1,329.9,325.9,327.3,331.9&#10;&#9;L327.3,331.9z M343,316.8c-1.7-0.7-3.1-0.9-4.3-0.9c0.2,3.9-3.2,4.7-4.4,1.6c-1,0.3-1.8,0.8-2.5,1.5&#10;&#9;C337.3,325.5,342.7,321.1,343,316.8z"/>
  <path class="st0" d="M301.4,386.1c-3.8,0.4-5.5,2.4-5.2,6.3c0.3,5.5,5.5,11.3,5,16.1c-0.3,3.1-2.7,4.6-5.5,4.7&#10;&#9;c-0.8,0-1.6-0.1-2.4-0.3c-0.4-0.1-0.8-0.3-1-0.3c-0.3,0-0.4,0.1-0.2,0.3c1.2,2,4,3.4,8,4.5c4.5,1.2,5.6,1.2,10.2,0&#10;&#9;c4-1.1,6.8-2.5,8-4.5c0.2-0.3,0.1-0.4-0.2-0.3c-0.2,0-0.6,0.1-1,0.3c-0.8,0.2-1.6,0.3-2.4,0.3c-2.7-0.1-5.2-1.6-5.5-4.7&#10;&#9;c-0.4-4.8,4.7-10.6,5-16.1c0.2-3.9-1.4-5.9-5.2-6.3C306.8,385.8,303.5,385.8,301.4,386.1L301.4,386.1z M300,419&#10;&#9;c-4.6-1.3-8.4-3.6-11.2-7.3c-0.3-0.5-0.4-0.9-0.2-1.2c0.4-0.6,1.6,0.3,2,0.5c2.3,1.2,3.9,1.7,4.6,1.3c1.7-1-2.1-6.2-3.2-7.4&#10;&#9;c-1.5-1.6-2.6-2.2-3.1-2.2c-0.4,0-0.4,0.6-0.1,1.8c0.1,0.4,0.5,1.1,0.2,1.4c-0.2,0.2-0.5,0.1-0.9-0.1c-2.5-1.9-4.1-4.1-4.9-6.2&#10;&#9;c-2.3-6.1,2.4-10.3,7.7-12.2c3.1-1.1,7-1.8,11.7-2.1c1.7-0.1,3.3-0.1,5,0c4.8,0.3,8.8,1,12,2.1c5.3,1.9,9.9,6.1,7.7,12.2&#10;&#9;c-0.8,2.2-2.5,4.3-4.9,6.2c-0.4,0.2-0.7,0.3-0.9,0.1c-0.3-0.4,0-1,0.2-1.4c0.3-1.2,0.3-1.8-0.1-1.8c-0.5,0-1.7,0.6-3.1,2.2&#10;&#9;c-1.1,1.2-4.9,6.4-3.2,7.4c0.7,0.4,2.3-0.1,4.6-1.3c0.4-0.2,1.6-1.1,2-0.5c0.1,0.2,0.1,0.6-0.2,1.2c-2.8,3.6-6.5,6-11.1,7.2&#10;&#9;C306.3,420.1,304.1,420.1,300,419z"/>
</svg>